<?xml version="1.0" encoding="UTF-8"?>
<svg width="88px" height="30px" viewBox="0 0 88 30" version="1.1" xmlns="http://www.w3.org/2000/svg" xmlns:xlink="http://www.w3.org/1999/xlink">
    <!-- Generator: Sketch 54.1 (76490) - https://sketchapp.com -->
    <title>logocargo</title>
    <desc>Created with Sketch.</desc>
    <g id="Page-1" stroke="none" stroke-width="1" fill="none" fill-rule="evenodd">
        <g id="logocargo" fill-rule="nonzero">
            <path d="M14.9999686,3.63087338e-12 C23.2842586,3.63087338e-12 30,6.71574134 30,15.0000314 C30,23.284258 23.2842586,30 14.9999686,30 C6.71574197,30 2.82796009e-12,23.284258 2.82796009e-12,15.0000314 C2.82796009e-12,6.71574134 6.71574197,3.63087338e-12 14.9999686,3.63087338e-12 Z M22.9921602,11.80812 C24.3177545,10.4825878 24.3177545,8.333372 22.9921602,7.00777704 C21.6666274,5.68224486 19.5174116,5.68224486 18.1918166,7.00777704 C17.6999875,7.49979507 17.3910669,8.10516164 17.2642345,8.73976414 C14.8605976,7.83505257 12.1036836,8.40979879 10.2683026,10.2453686 C8.43128414,12.0823871 7.85710536,14.8424518 8.76521864,17.2476006 C8.12652093,17.3730472 7.516744,17.6829758 7.02188974,18.1777666 C5.6963582,19.5032982 5.6963582,21.6525774 7.02188974,22.9781096 C8.34748529,24.3036411 10.4966384,24.3036411 11.8222334,22.9781096 C12.3199219,22.4803576 12.6306702,21.8664849 12.754667,21.2238181 C13.4992784,21.5016136 14.2772204,21.6389054 15.0513181,21.6389054 C16.7708934,21.6389054 18.4694233,20.9708469 19.731634,19.7086367 C21.560462,17.8799349 22.1382321,15.1362517 21.2474449,12.7386632 C21.88671,12.6134062 22.4969909,12.3033514 22.9921602,11.80812 Z M18.9872121,7.80317129 C19.8611752,6.92901862 21.2833593,6.92901862 22.1573224,7.80317129 C23.0313502,8.67719843 23.0313502,10.0993191 22.1573224,10.9733462 C21.6537744,11.4770832 20.960262,11.7080024 20.2534541,11.6073179 C20.2196824,11.6025292 20.1867937,11.6037267 20.1544078,11.6075069 C19.9454787,11.5803509 19.7268453,11.6088299 19.5216957,11.7039071 C19.2295351,11.8391816 19.0209832,12.0810641 18.9200465,12.3618214 C18.8208741,12.637601 18.8256001,12.9509326 18.9584174,13.237801 C19.7109677,14.863496 19.3650619,16.8072484 18.0976852,18.0746245 C16.8301824,19.3418757 14.8863678,19.6883488 13.2602316,18.9351684 C12.9694568,18.8005234 12.6514626,18.7972466 12.3729102,18.9006404 C12.097005,19.0030263 11.8597219,19.2100656 11.7263377,19.4982578 C11.6411524,19.6821109 11.6088933,19.8768011 11.6224393,20.0655685 C11.6174616,20.1028054 11.6160124,20.1408619 11.6224393,20.1799884 C11.740955,20.8930964 11.5068225,21.6237206 10.9964069,22.1345146 C10.1224426,23.0082267 8.70032186,23.0082267 7.82616921,22.1345146 C7.40276536,21.7109219 7.16957736,21.1480214 7.16957736,20.5493327 C7.16957736,19.9504557 7.40276536,19.3874925 7.82616921,18.9641514 C8.32959114,18.4605399 9.02348257,18.2299986 9.7655735,18.3316282 C9.84048836,18.3467501 9.91641121,18.3572089 9.99359429,18.3572089 C10.1560881,18.3572089 10.3212287,18.3226815 10.4782409,18.2500349 C10.7634085,18.1179731 10.968747,17.8842191 11.0723291,17.6119679 C11.1789991,17.3314629 11.1774879,17.0100664 11.0414558,16.7161409 C10.2890317,15.0903826 10.6349374,13.1466935 11.902252,11.8793802 C13.1697542,10.6118774 15.113695,10.2657826 16.739705,11.0187735 C17.0293457,11.1529779 17.3461436,11.1568209 17.6240019,11.0546246 C17.9012307,10.9525537 18.1396474,10.744947 18.2735996,10.4556841 C18.3774346,10.231507 18.4024479,9.99126264 18.3610524,9.75776086 C18.2426,9.04433721 18.4766691,8.31365086 18.9872121,7.80317129 Z M16.7722171,16.7491564 C17.7420137,15.7794225 17.7420137,14.2070936 16.7722171,13.2372971 C15.8024826,12.2675639 14.2300916,12.2675639 13.2602944,13.2372971 C12.2905611,14.2070936 12.2905611,15.7794225 13.2602944,16.7491564 C14.2300916,17.7190157 15.8024826,17.7190157 16.7722171,16.7491564 Z" id="Combined-Shape" fill="#38A2FF"></path>
            <path d="M43.5976646,17.6228571 L44.9026646,19.4042857 C43.9705217,20.2121429 42.7276646,20.6057143 41.2983789,20.6057143 C38.191236,20.6057143 35.871236,18.3478571 35.871236,15.0128571 C35.871236,11.9057143 38.191236,9.44071429 41.4019503,9.44071429 C42.7069503,9.44071429 43.8876646,9.855 44.8405217,10.58 L43.5976646,12.4442857 C42.9969503,11.9264286 42.2719503,11.6364286 41.4848074,11.6364286 C39.7448074,11.6364286 38.4190931,13.1485714 38.4190931,15.0128571 C38.4190931,17.0014286 39.8069503,18.41 41.4640931,18.41 C42.2305217,18.41 42.9969503,18.1407143 43.5976646,17.6228571 Z M55.0335438,20.3571429 L52.7964009,20.3571429 L52.6721152,19.3628571 C51.9056866,20.2742857 50.8699724,20.6057143 49.6478295,20.6057143 C47.6592581,20.6057143 45.8156866,19.5078571 45.8156866,17.2707143 C45.8156866,14.6192857 48.2599724,13.7907143 50.5178295,13.7907143 C51.0771152,13.7907143 51.7399724,13.8528571 52.5271152,14.0185714 L52.5271152,13.77 C52.5271152,12.32 51.8849724,11.45 50.2485438,11.45 C49.0471152,11.45 47.8664009,11.9057143 46.9549724,12.3821429 L46.2714009,10.4971429 C47.5349724,9.87571429 49.1714009,9.44071429 50.7042581,9.44071429 C53.7285438,9.44071429 55.0335438,11.1392857 55.0335438,13.915 L55.0335438,20.3571429 Z M52.5271152,17.685 L52.5271152,15.6342857 C51.8849724,15.4892857 51.3671152,15.4271429 50.8906866,15.4271429 C49.7099724,15.4271429 48.2806866,15.8 48.2806866,17.1878571 C48.2806866,18.265 49.1299724,18.7414286 50.1035438,18.7414286 C51.0356866,18.7414286 51.8021152,18.3064286 52.5271152,17.685 Z M59.7787086,9.68928571 L59.9029944,11.2014286 C60.5451372,10.1657143 61.3944229,9.44071429 62.4922801,9.44071429 C62.9894229,9.44071429 63.3829944,9.50285714 63.7765658,9.62714286 L63.2172801,11.9678571 C62.9065658,11.8021429 62.5958515,11.74 62.2022801,11.74 C61.2908515,11.74 60.5244229,12.2578571 60.0065658,13.1692857 L60.0065658,20.3571429 L57.4794229,20.3571429 L57.4794229,9.68928571 L59.7787086,9.68928571 Z M74.6117307,9.68928571 L74.6117307,19.7978571 C74.6117307,20.9371429 74.3838736,21.8692857 73.9695879,22.615 C73.0167307,24.355 71.1938735,25.0385714 69.2053021,25.0385714 C67.5688735,25.0385714 65.7874449,24.5621429 64.3788735,23.5885714 L65.3110164,21.5171429 C66.4295878,22.3664286 67.9624449,22.8428571 69.1431592,22.8428571 C70.7795878,22.8428571 72.0845879,22.0142857 72.0845879,20.0671429 L72.0845879,18.8657143 C71.3181592,19.9221429 69.9717306,20.3571429 68.8324449,20.3571429 C65.9324449,20.3571429 63.7367306,17.9542857 63.7367306,14.8678571 C63.7367306,11.9678571 65.8288735,9.44071429 68.8945878,9.44071429 C70.0338735,9.44071429 71.3803021,9.89642857 72.1881593,10.9114286 L72.312445,9.68928571 L74.6117307,9.68928571 Z M72.0845879,16.525 L72.0845879,12.9828571 C71.3595878,12.0507143 70.3445878,11.6364286 69.3710164,11.6364286 C67.2788735,11.6364286 66.2845878,13.3142857 66.2845878,14.93 C66.2845878,16.6492857 67.4653021,18.1614286 69.3088735,18.1614286 C70.3238735,18.1614286 71.4838736,17.6642857 72.0845879,16.525 Z M81.7804671,9.44071429 C84.9704671,9.44071429 87.3111814,11.9057143 87.3111814,15.0128571 C87.3111814,18.1407143 84.9704671,20.6057143 81.7804671,20.6057143 C78.5904671,20.6057143 76.2497529,18.1407143 76.2497529,15.0128571 C76.2497529,11.9057143 78.5904671,9.44071429 81.7804671,9.44071429 Z M84.7633243,15.0128571 C84.7633243,13.1485714 83.5204671,11.6364286 81.7804671,11.6364286 C80.0404671,11.6364286 78.79761,13.1485714 78.79761,15.0128571 C78.79761,16.8978571 80.0404671,18.41 81.7804671,18.41 C83.5204671,18.41 84.7633243,16.8978571 84.7633243,15.0128571 Z" id="cargo" fill="#1C1C1C"></path>
        </g>
    </g>
</svg>