<?xml version="1.0" encoding="UTF-8"?>
<svg width="123px" height="42px" viewBox="0 0 123 42" version="1.1" xmlns="http://www.w3.org/2000/svg" xmlns:xlink="http://www.w3.org/1999/xlink">
    <!-- Generator: Sketch 54.1 (76490) - https://sketchapp.com -->
    <title>Group 15</title>
    <desc>Created with Sketch.</desc>
    <g id="Page-1" stroke="none" stroke-width="1" fill="none" fill-rule="evenodd">
        <g id="Group-15">
            <path d="M20.9999561,3.63087338e-12 C32.5979621,3.63087338e-12 42,9.40203788 42,21.0000439 C42,32.5979612 32.5979621,42 20.9999561,42 C9.40203876,42 2.82796009e-12,32.5979612 2.82796009e-12,21.0000439 C2.82796009e-12,9.40203788 9.40203876,3.63087338e-12 20.9999561,3.63087338e-12 Z M32.1890243,16.531368 C34.0448563,14.6756229 34.0448563,11.6667208 32.1890243,9.81088785 C30.3332784,7.9551428 27.3243762,7.9551428 25.4685433,9.81088785 C24.7799825,10.4997131 24.3474936,11.3472263 24.1699283,12.2356698 C20.8048366,10.9690736 16.945157,11.7737183 14.3756236,14.3435161 C11.8037978,16.9153419 10.9999475,20.7794325 12.2713061,24.1466409 C11.3771293,24.3222661 10.5234416,24.7561661 9.83064564,25.4488733 C7.97490148,27.3046175 7.97490148,30.3136084 9.83064564,32.1693535 C11.6864794,34.0250976 14.6952938,34.0250976 16.5511267,32.1693535 C17.2478907,31.4725007 17.6829383,30.6130788 17.8565338,29.7133453 C18.8989898,30.1022591 19.9881085,30.2944675 21.0718454,30.2944675 C23.4792508,30.2944675 25.8571926,29.3591856 27.6242876,27.5920914 C30.1846468,25.0319089 30.9935249,21.1907524 29.7464229,17.8341285 C30.641394,17.6587687 31.4957872,17.224692 32.1890243,16.531368 Z M26.582097,10.9244398 C27.8056453,9.70062607 29.796703,9.70062607 31.0202514,10.9244398 C32.2438903,12.1480778 32.2438903,14.1390467 31.0202514,15.3626847 C30.3152841,16.0679165 29.3443668,16.3912033 28.3548357,16.2502451 C28.3075553,16.2435409 28.2615112,16.2452174 28.2161709,16.2505096 C27.9236702,16.2124913 27.6175834,16.2523619 27.330374,16.38547 C26.9213492,16.5748543 26.6293765,16.9134897 26.4880651,17.3065499 C26.3492237,17.6926414 26.3558401,18.1313056 26.5417844,18.5329214 C27.5953548,20.8088944 27.1110867,23.5301478 25.3367593,25.3044743 C23.5622553,27.078626 20.8409149,27.5636883 18.5643243,26.5092358 C18.1572395,26.3207328 17.7120477,26.3161452 17.3220743,26.4608966 C16.935807,26.6042368 16.6036106,26.8940919 16.4168728,27.2975609 C16.2976134,27.5549552 16.2524506,27.8275216 16.271415,28.0917959 C16.2644462,28.1439275 16.2624174,28.1972066 16.271415,28.2519838 C16.437337,29.2503349 16.1095515,30.2732089 15.3949697,30.9883205 C14.1714196,32.2115174 12.1804506,32.2115174 10.9566369,30.9883205 C10.3638715,30.3952906 10.0374083,29.60723 10.0374083,28.7690658 C10.0374083,27.930638 10.3638715,27.1424895 10.9566369,26.549812 C11.6614276,25.8447559 12.6328756,25.5219981 13.6718029,25.6642795 C13.7766837,25.6854502 13.8829757,25.7000924 13.991032,25.7000924 C14.2185234,25.7000924 14.4497202,25.6517541 14.6695373,25.5500488 C15.0687719,25.3651624 15.3562458,25.0379067 15.5012608,24.656755 C15.6505988,24.264048 15.648483,23.8140929 15.4580381,23.4025973 C14.4046444,21.1265356 14.8889124,18.4053709 16.6631528,16.6311323 C18.4376559,14.8566283 21.159173,14.3720957 23.435587,15.4262829 C23.841084,15.6141691 24.284601,15.6195492 24.6736027,15.4764744 C25.061723,15.3335752 25.3955064,15.0429258 25.5830394,14.6379578 C25.7284084,14.3241098 25.763427,13.9877677 25.7054734,13.6608652 C25.53964,12.6620721 25.8673368,11.6391112 26.582097,10.9244398 Z M23.4811039,23.4488189 C24.8388192,22.0911915 24.8388192,19.8899311 23.4811039,18.5322159 C22.1234756,17.1745894 19.9221283,17.1745894 18.5644121,18.5322159 C17.2067856,19.8899311 17.2067856,22.0911915 18.5644121,23.4488189 C19.9221283,24.806622 22.1234756,24.806622 23.4811039,23.4488189 Z" id="Combined-Shape" fill="#38A2FF"></path>
            <path d="M61.0367304,24.672 L62.8637304,27.166 C61.5587304,28.297 59.8187304,28.848 57.8177304,28.848 C53.4677304,28.848 50.2197304,25.687 50.2197304,21.018 C50.2197304,16.668 53.4677304,13.217 57.9627304,13.217 C59.7897304,13.217 61.4427304,13.797 62.7767304,14.812 L61.0367304,17.422 C60.1957304,16.697 59.1807304,16.291 58.0787304,16.291 C55.6427304,16.291 53.7867304,18.408 53.7867304,21.018 C53.7867304,23.802 55.7297304,25.774 58.0497304,25.774 C59.1227304,25.774 60.1957304,25.397 61.0367304,24.672 Z M77.0469613,28.5 L73.9149613,28.5 L73.7409613,27.108 C72.6679613,28.384 71.2179613,28.848 69.5069613,28.848 C66.7229613,28.848 64.1419613,27.311 64.1419613,24.179 C64.1419613,20.467 67.5639613,19.307 70.7249613,19.307 C71.5079613,19.307 72.4359613,19.394 73.5379613,19.626 L73.5379613,19.278 C73.5379613,17.248 72.6389613,16.03 70.3479613,16.03 C68.6659613,16.03 67.0129613,16.668 65.7369613,17.335 L64.7799613,14.696 C66.5489613,13.826 68.8399613,13.217 70.9859613,13.217 C75.2199613,13.217 77.0469613,15.595 77.0469613,19.481 L77.0469613,28.5 Z M73.5379613,24.759 L73.5379613,21.888 C72.6389613,21.685 71.9139613,21.598 71.2469613,21.598 C69.5939613,21.598 67.5929613,22.12 67.5929613,24.063 C67.5929613,25.571 68.7819613,26.238 70.1449613,26.238 C71.4499613,26.238 72.5229613,25.629 73.5379613,24.759 Z M83.6901921,13.565 L83.8641921,15.682 C84.7631921,14.232 85.9521921,13.217 87.4891921,13.217 C88.1851921,13.217 88.7361921,13.304 89.2871921,13.478 L88.5041921,16.755 C88.0691921,16.523 87.6341921,16.436 87.0831921,16.436 C85.8071921,16.436 84.7341921,17.161 84.0091921,18.437 L84.0091921,28.5 L80.4711921,28.5 L80.4711921,13.565 L83.6901921,13.565 Z M104.456423,13.565 L104.456423,27.717 C104.456423,29.312 104.137423,30.617 103.557423,31.661 C102.223423,34.097 99.6714229,35.054 96.8874229,35.054 C94.5964229,35.054 92.1024229,34.387 90.1304229,33.024 L91.4354229,30.124 C93.0014229,31.313 95.1474229,31.98 96.8004229,31.98 C99.0914229,31.98 100.918423,30.82 100.918423,28.094 L100.918423,26.412 C99.8454229,27.891 97.9604229,28.5 96.3654229,28.5 C92.3054229,28.5 89.2314229,25.136 89.2314229,20.815 C89.2314229,16.755 92.1604229,13.217 96.4524229,13.217 C98.0474229,13.217 99.9324229,13.855 101.063423,15.276 L101.237423,13.565 L104.456423,13.565 Z M100.918423,23.135 L100.918423,18.176 C99.9034229,16.871 98.4824229,16.291 97.1194229,16.291 C94.1904229,16.291 92.7984229,18.64 92.7984229,20.902 C92.7984229,23.309 94.4514229,25.426 97.0324229,25.426 C98.4534229,25.426 100.077423,24.73 100.918423,23.135 Z M114.492654,13.217 C118.958654,13.217 122.235654,16.668 122.235654,21.018 C122.235654,25.397 118.958654,28.848 114.492654,28.848 C110.026654,28.848 106.749654,25.397 106.749654,21.018 C106.749654,16.668 110.026654,13.217 114.492654,13.217 Z M118.668654,21.018 C118.668654,18.408 116.928654,16.291 114.492654,16.291 C112.056654,16.291 110.316654,18.408 110.316654,21.018 C110.316654,23.657 112.056654,25.774 114.492654,25.774 C116.928654,25.774 118.668654,23.657 118.668654,21.018 Z" id="cargo" fill="#1C1C1C" fill-rule="nonzero"></path>
        </g>
    </g>
</svg>